<svg xmlns="http://www.w3.org/2000/svg" width="39.858" height="43.461" viewBox="0 0 39.858 43.461">
  <g id="Group_861" data-name="Group 861" transform="translate(-27.34 -95.229)">
    <path id="Path_1324" data-name="Path 1324" d="M46.065,138.689a16.522,16.522,0,0,1-2.228-.743,6.508,6.508,0,0,1-3.512-4.331c-.076-.3-.2-.365-.491-.365-2.581.013-5.174.013-7.755,0a3.149,3.149,0,0,1-3.059-1.989,3.082,3.082,0,0,1,.881-3.575,11.958,11.958,0,0,0,3.978-6.534,15.925,15.925,0,0,0,.315-2.9c.05-1.6.013-3.2.013-4.8A12.671,12.671,0,0,1,43.673,101.1c.579-.164,1.183-.252,1.825-.39,0-.126.025-.29.025-.453,0-1.221,0-2.43.013-3.651a1.289,1.289,0,0,1,.881-1.272,1.188,1.188,0,0,1,1.423.327,1.963,1.963,0,0,1,.4,1.07c.05,1.171.013,2.342.013,3.512v.491a12.685,12.685,0,0,1,11.179,11.242,59.463,59.463,0,0,1,.1,6.181,12.981,12.981,0,0,0,.478,3.55,12.019,12.019,0,0,0,3.6,5.728,3.689,3.689,0,0,1,1.3,2.027,3.168,3.168,0,0,1-3.021,3.777c-2.619.013-5.225,0-7.843,0h-.491c-.05.189-.1.378-.164.554a6.744,6.744,0,0,1-5.451,4.8,1.179,1.179,0,0,0-.189.076C47.2,138.689,46.632,138.689,46.065,138.689Zm.831-8.145H61.563c.277,0,.6,0,.655-.327.025-.2-.176-.428-.277-.629-.025-.05-.088-.076-.126-.113a14.585,14.585,0,0,1-4.948-10.764c-.05-1.725.013-3.45-.013-5.174a11.66,11.66,0,0,0-.189-2.1,9.883,9.883,0,0,0-13.521-7.264,9.482,9.482,0,0,0-6.131,8.561c-.126,1.788-.05,3.588-.05,5.388a14.745,14.745,0,0,1-3.5,9.832c-.5.6-1.12,1.12-1.649,1.7a.771.771,0,0,0-.2.6c.038.138.353.2.541.277a.747.747,0,0,0,.29,0Q39.657,130.55,46.9,130.544Zm3.777,2.732H43.119a3.994,3.994,0,0,0,7.554,0Z" transform="translate(0.373 0)" fill="#005c7e"/>
    <path id="Path_1325" data-name="Path 1325" d="M60.793,112.141c0,.252.013.5,0,.768a1.352,1.352,0,0,1-1.36,1.385,1.4,1.4,0,0,1-1.385-1.372c-.1-1.209-.138-2.43-.353-3.613a18.614,18.614,0,0,0-4.167-8.838c-.353-.428-.743-.818-1.108-1.221A1.37,1.37,0,1,1,54.4,97.361,21.712,21.712,0,0,1,60.5,109.422c.138.906.214,1.813.315,2.732C60.806,112.141,60.806,112.141,60.793,112.141Z" transform="translate(6.38 0.425)" fill="#005c7e"/>
    <path id="Path_1326" data-name="Path 1326" d="M27.34,112.286a22.071,22.071,0,0,1,6.433-14.969A1.366,1.366,0,1,1,35.7,99.243a19.193,19.193,0,0,0-4.822,8.145,20.209,20.209,0,0,0-.806,5.552,1.316,1.316,0,0,1-1.183,1.322,1.342,1.342,0,0,1-1.486-.982A6.494,6.494,0,0,1,27.34,112.286Z" transform="translate(0 0.418)" fill="#005c7e"/>
  </g>
</svg>
