<svg xmlns="http://www.w3.org/2000/svg" width="51.764" height="51.774" viewBox="0 0 51.764 51.774">
  <g id="Group_863" data-name="Group 863" transform="translate(-88.36 -23.98)">
    <path id="Path_1335" data-name="Path 1335" d="M88.36,44.09c.64-1.08,1.29-2.15,1.92-3.24.57-.98.97-1.21,1.9-.61,1.09.7,1.87.17,2.71-.34a.534.534,0,0,0,.16-.38q.1-2.19.18-4.38c.02-.56-.01-1.11.01-1.67a.962.962,0,0,1,.98-1c.2-.01.4-.01.61-.01h28.46c0-.41-.01-.77,0-1.14a1.061,1.061,0,0,1,1.18-1.15c1.41-.01,2.83-.01,4.24,0a1.08,1.08,0,0,1,1.19,1.19c.01.35,0,.7,0,1.1h6.93c.98,0,1.29.32,1.29,1.31V62.12c0,1-.33,1.33-1.33,1.34-.17,0-.34.01-.51,0a1.621,1.621,0,0,0-1.74.67,2.082,2.082,0,0,1-1,.65c-4.72,1.9-9.43,3.82-14.18,5.66a26.346,26.346,0,0,1-4.68,1.35,21.209,21.209,0,0,1-4.07.15c-1.7-.03-3.4-.14-5.1-.25a.756.756,0,0,0-.88.47,3.644,3.644,0,0,1-.49.76,1.009,1.009,0,0,1-1.35.25.99.99,0,0,1-.34-1.33c.35-.61.73-1.21,1.12-1.8a1.173,1.173,0,0,1,1.17-.42c2.35.12,4.71.22,7.06.33a15.087,15.087,0,0,0,6.39-1.24q6.93-2.76,13.85-5.53c.27-.11.54-.19.8-.32a.957.957,0,0,0,.6-1.05.882.882,0,0,0-1.01-.72,15.548,15.548,0,0,0-1.92.39c-2.48.59-4.96,1.2-7.44,1.81a1.843,1.843,0,0,0-.52.27,10.669,10.669,0,0,1-1.61,1.1,42.835,42.835,0,0,1-7.32,2.54,1.727,1.727,0,0,1-.93-.02.883.883,0,0,1-.57-1.02,1,1,0,0,1,.88-.91,43.652,43.652,0,0,0,6.91-2.36,5.522,5.522,0,0,0,.8-.42.725.725,0,0,0,.38-.94.824.824,0,0,0-.91-.56c-1.05.11-2.11.23-3.16.35-1.67.18-3.34.47-5.02.5a31.574,31.574,0,0,1-4.21-.41,29.33,29.33,0,0,0-5.38-.38,9.177,9.177,0,0,0-7.64,4.67c-1.28,2.11-2.38,4.33-3.56,6.5-.11.21-.21.42-.34.62a1,1,0,0,1-1.32.38.975.975,0,0,1-.46-1.33c.26-.55.55-1.08.84-1.61,1.14-2.06,2.29-4.11,3.44-6.17a7.843,7.843,0,0,1,.5-.7c-.6-.3-.65-.82-.64-1.41.02-1.65.03-3.3,0-4.95-.01-.7-.11-1.41-.18-2.11a.41.41,0,0,0-.1-.26c-.47-.29-.95-.57-1.44-.83-.08-.04-.22.02-.33.06-.42.18-.83.37-1.25.54a1.029,1.029,0,0,1-1.49-.49c-.63-1.07-1.25-2.15-1.87-3.23a2.394,2.394,0,0,0-.21-.26v-.71c.22-.23.39-.54.66-.67a2,2,0,0,0,1.19-2.31.931.931,0,0,0-.36-.7c-.51-.4-.99-.84-1.48-1.27C88.36,44.57,88.36,44.33,88.36,44.09Zm36.92-9.57H97.29v2.62c.96,0,1.88-.01,2.81,0a1.065,1.065,0,0,1,1.2,1.07c.06.45.1.9.18,1.35a.589.589,0,0,0,.2.36c1.29.87,1.3.86,2.74.24.08-.03.15-.07.23-.1a1,1,0,0,1,1.39.44c.67,1.13,1.32,2.26,1.97,3.41a.984.984,0,0,1-.27,1.39c-.35.29-.75.52-1.08.82a1.04,1.04,0,0,0-.29.57,1.988,1.988,0,0,0,1.22,2.42.84.84,0,0,1,.24.18.951.951,0,0,1,.23,1.24q-.99,1.785-2.04,3.54a.967.967,0,0,1-1.31.41,7.584,7.584,0,0,1-1.01-.45,1.073,1.073,0,0,0-1.14.07,1.883,1.883,0,0,0-1.21,1.83c-.06,1.3-.34,1.46-1.65,1.46H97.31v4.13a4.96,4.96,0,0,0,.91-.39,11.53,11.53,0,0,1,3.48-1.67,18.528,18.528,0,0,1,7.81-.14,21.213,21.213,0,0,0,4.96.45c2.01-.19,4.01-.43,6.02-.65.42-.05.83-.11,1.25-.14,1.74-.15,2.65.43,3.42,2.17.17-.04.34-.07.52-.12,2.65-.63,5.29-1.28,7.94-1.9a3.026,3.026,0,0,1,3.68,1.8c.15.42.35.56.78.43V34.53h-6.16c0,.37.01.7,0,1.03-.02.8-.38,1.2-1.17,1.21q-2.145.03-4.29,0a1.052,1.052,0,0,1-1.15-1.18A9.429,9.429,0,0,1,125.28,34.52ZM104.7,42.28c-.42.18-.83.33-1.22.52a1.2,1.2,0,0,1-1.35-.17,9.412,9.412,0,0,0-1.73-1.01,1.323,1.323,0,0,1-.91-1.25c-.03-.38-.08-.76-.13-1.13h-2.2c-.06.51-.13.97-.18,1.44a1.126,1.126,0,0,1-.68.87c-.68.36-1.35.74-2,1.15a1.151,1.151,0,0,1-1.18.14c-.42-.19-.85-.37-1.3-.57-.38.66-.73,1.28-1.1,1.92.38.28.72.54,1.06.78a1.2,1.2,0,0,1,.54,1.16,21.3,21.3,0,0,0,0,2.26,1.214,1.214,0,0,1-.57,1.2c-.35.23-.67.49-1.03.77.38.66.74,1.28,1.1,1.91.46-.2.87-.38,1.29-.57a1.169,1.169,0,0,1,1.19.13c.65.41,1.32.8,2,1.15a1.138,1.138,0,0,1,.69.92c.05.46.12.93.17,1.4h2.21c.05-.43.09-.83.13-1.23a1.274,1.274,0,0,1,.85-1.14,11.278,11.278,0,0,0,1.78-1.03,1.217,1.217,0,0,1,1.36-.18c.39.19.8.35,1.22.53.37-.64.73-1.26,1.1-1.91-.37-.28-.7-.55-1.05-.78a1.183,1.183,0,0,1-.55-1.2,16.3,16.3,0,0,0,0-2.21,1.2,1.2,0,0,1,.51-1.17c.37-.26.72-.53,1.09-.8C105.41,43.51,105.06,42.91,104.7,42.28Zm22.67-10.04v2.44h2.41V32.24Z" fill="#005c7e"/>
    <path id="Path_1336" data-name="Path 1336" d="M98.46,23.98c.83.53.91.96.34,1.92h3.54c.39,0,.77-.01,1.16,0a.993.993,0,0,1,1.02,1.02.974.974,0,0,1-1.03,1c-1.55.01-3.1,0-4.72,0,.11.16.19.28.26.4a1.033,1.033,0,0,1-.19,1.29.971.971,0,0,1-1.25.06c-.75-.7-1.48-1.42-2.17-2.18a.83.83,0,0,1,.02-1.16c.78-.81,1.61-1.57,2.42-2.34C98.06,23.98,98.26,23.98,98.46,23.98Z" fill="#005c7e"/>
    <path id="Path_1337" data-name="Path 1337" d="M136.58,73.8H131.9a1.016,1.016,0,0,1-1.09-.84.979.979,0,0,1,1.04-1.17c1.36-.01,2.72,0,4.09,0h.61c-.1-.15-.17-.26-.23-.36a1.008,1.008,0,0,1,.18-1.32.976.976,0,0,1,1.29-.02c.71.67,1.4,1.35,2.07,2.07a.951.951,0,0,1-.06,1.37c-.61.65-1.25,1.28-1.89,1.89a1,1,0,0,1-1.41.08,1.029,1.029,0,0,1-.09-1.45A2.2,2.2,0,0,1,136.58,73.8Z" fill="#005c7e"/>
    <path id="Path_1338" data-name="Path 1338" d="M129.89,46.09c1.08,0,2.15-.01,3.23,0a1.051,1.051,0,0,1,1.19,1.18c.01,2.15.01,4.31,0,6.46a1.04,1.04,0,0,1-1.18,1.18h-6.51a1.03,1.03,0,0,1-1.15-1.15q-.015-3.255,0-6.51a1.026,1.026,0,0,1,1.15-1.15C127.71,46.08,128.8,46.09,129.89,46.09Zm-2.37,6.76h4.69V48.16h-4.69C127.52,49.73,127.52,51.27,127.52,52.85Z" fill="#005c7e"/>
    <path id="Path_1339" data-name="Path 1339" d="M118.36,38.1c.98,0,1.95-.01,2.93,0,.79.01,1.15.36,1.15,1.14.01,1.97.01,3.94,0,5.9a1.018,1.018,0,0,1-1.13,1.13c-1.97.02-3.94.02-5.9,0a1.045,1.045,0,0,1-1.14-1.18c-.01-1.93-.01-3.87,0-5.8,0-.82.39-1.19,1.22-1.19Zm-2.04,6.08h4.05V40.14h-3.66c-.11,0-.23.01-.37.02-.01.18-.03.32-.03.47C116.32,41.81,116.32,42.98,116.32,44.18Z" fill="#005c7e"/>
    <path id="Path_1340" data-name="Path 1340" d="M114.61,50.05c.72,0,1.45-.01,2.17,0a.989.989,0,0,1,1.09,1.1c.01,1.46.01,2.93,0,4.39a.993.993,0,0,1-1.06,1.08q-2.22.015-4.44,0a1,1,0,0,1-1.06-1.08q-.015-2.22,0-4.44a.954.954,0,0,1,1.03-1.04C113.09,50.04,113.85,50.05,114.61,50.05Zm1.21,2.06h-2.46v2.46h2.46Z" fill="#005c7e"/>
    <path id="Path_1341" data-name="Path 1341" d="M94.72,47.24a3.54,3.54,0,1,1,3.54,3.58A3.542,3.542,0,0,1,94.72,47.24Zm3.56,1.52a1.5,1.5,0,1,0-1.53-1.49A1.509,1.509,0,0,0,98.28,48.76Z" fill="#005c7e"/>
  </g>
</svg>
