<svg xmlns="http://www.w3.org/2000/svg" width="16.418" height="17.986" viewBox="0 0 16.418 17.986">
  <path id="play-store-svgrepo-com" d="M12.954,11.616l2.957-2.957L6.36,3.291a1.552,1.552,0,0,0-1.746-.016l8.34,8.341Zm3.461,3.462,3.074-1.729a1.575,1.575,0,0,0,.929-1.34,1.577,1.577,0,0,0-.928-1.34L16.707,9.106l-3.133,3.132ZM4.1,4A2.123,2.123,0,0,0,4,4.66v14.7a1.913,1.913,0,0,0,.236.97l8.1-8.1Zm8.854,8.855L4.9,20.91A1.376,1.376,0,0,0,5.4,21a1.994,1.994,0,0,0,.968-.276l9.255-5.2-2.666-2.67Z" transform="translate(-4 -3.014)" fill="#171717"/>
</svg>
