<svg xmlns="http://www.w3.org/2000/svg" width="479.617" height="465.246" viewBox="0 0 479.617 465.246">
  <g id="Group_844" data-name="Group 844" transform="translate(-10496.415 -950.254)">
    <g id="Group_352" data-name="Group 352" transform="translate(10568.109 986.826)">
      <path id="Path_444" data-name="Path 444" d="M106.9,511.167s10.749-15.041,36.877-18.965c26.128-4.087,50.358-36.459,93.272-31.718,43.06,4.741,78.676,34.17,127.574,25.178s79.552,2.452,90.5,11.608c10.947,8.992,56.343-2.125,59.7,14.551Z" transform="translate(-106.9 -83.147)" fill="#a8d29f"/>
      <path id="Path_445" data-name="Path 445" d="M198.317,272.8s-33.026-1.635-15.532,98.914c0,0,11.772,34.17-3.106,56.078H398.27V272.8Z" transform="translate(-90.655 -202.015)" fill="#afcdfb"/>
      <g id="Group_336" data-name="Group 336" transform="translate(8.509 207.67)">
        <g id="Group_331" data-name="Group 331" transform="translate(116.768 87.202)">
          <path id="Path_446" data-name="Path 446" d="M206.741,446.874s-15.2-17.821-.981-29.1c0,0,10.464-6.376,18.965-5.886,0,0-12.1,20.273-8.175,22.235s11.772-23.543,11.772-23.543,23.87-2.289,31.554,1.308c0,0-20.437,16.676-16.022,17.657,4.251.981,26.322-15.368,26.322-15.368s22.235,3.76,20.927,17.33c-1.144,13.57-8.829,17.657-12.1,17.33-3.433-.327-23.053-7.848-23.38-5.068-.49,2.779,11.445,11.772,19.619,12.1,0,0-15.7,17.167-26,12.262-10.464-4.9-11.281-12.916-17.821-15.859s-11.935-2.943-9.319,0,14.387,5.886,18.148,12.426,7.03,10.954-3.76,9.319-28.284-9.483-28.938-18.475Z" transform="translate(-180.909 -409.861)" fill="#599dad"/>
          <g id="Group_330" data-name="Group 330" transform="translate(0 22.034)">
            <path id="Path_447" data-name="Path 447" d="M282.779,423.439s-60.166-2.289-73.572,14.878a43.7,43.7,0,0,1-11.935,16.84l-1.471,3.924s10.464-10.954,14.224-11.608C210.024,447.31,204.138,426.055,282.779,423.439Z" transform="translate(-183.374 -423.338)" fill="#599dad"/>
            <path id="Path_448" data-name="Path 448" d="M202.1,443.38s-12.916,9.483-13.9,26.649l2.289.164s4.087-17.657,11.608-24.524S202.1,443.38,202.1,443.38Z" transform="translate(-188.2 -411.561)" fill="#599dad"/>
          </g>
        </g>
        <g id="Group_333" data-name="Group 333" transform="translate(0 38.954)">
          <path id="Path_449" data-name="Path 449" d="M206.08,443.213s24.361-13.57,12.916-32.045c0,0-8.992-11.281-18.8-14.224,0,0,5.232,27.467,0,28.121S196.6,394,196.6,394s-25.505-12.262-35.642-11.281c0,0,15.859,26.813,10.627,26.159s-23.053-27.794-23.053-27.794-26.159-4.9-30.41,10.627,2.616,23.38,6.54,24.361,28.775.654,28.121,3.924-17.494,8.5-26.813,5.559c0,0,10.3,25.5,24.034,24.36,13.57-1.308,17.821-9.646,26.159-10.3,8.5-.654,14.551,1.635,10.3,3.924s-18.475.817-25.341,6.54-12.262,9.319.327,11.935,35.315.981,39.892-8.665Z" transform="translate(-116.78 -380.35)" fill="#6bb7bf"/>
          <g id="Group_332" data-name="Group 332" transform="translate(13.44 16.267)">
            <path id="Path_450" data-name="Path 450" d="M125,390.3s68.013,22.072,75.861,46.6c0,0-.327,10.954,6.54,23.707v4.9s-7.194-16.513-10.954-18.8C196.283,446.542,211.488,425.288,125,390.3Z" transform="translate(-125 -390.3)" fill="#6bb7bf"/>
            <path id="Path_451" data-name="Path 451" d="M176.673,434.48s10.464,15.859,4.578,35.315l-2.779-.654s2.616-21.418-2.943-32.045C170.133,426.141,176.673,434.48,176.673,434.48Z" transform="translate(-94.272 -364.177)" fill="#6bb7bf"/>
          </g>
        </g>
        <g id="Group_335" data-name="Group 335" transform="translate(106.865)">
          <path id="Path_452" data-name="Path 452" d="M203.163,439.539s-32.045-17.984-17-42.345c0,0,11.935-14.878,24.688-18.8,0,0-6.867,36.3,0,37.113s4.741-41.037,4.741-41.037,33.68-16.186,46.923-14.878c0,0-20.927,35.478-14.06,34.661S278.7,357.466,278.7,357.466s34.661-6.376,40.056,14.06-3.433,30.737-8.5,32.045-37.931.818-37.113,5.068,23.053,11.118,35.478,7.194c0,0-13.733,33.68-31.554,32.045-17.984-1.635-23.543-12.753-34.661-13.733-11.118-.817-19.292,2.125-13.733,5.068s24.361.981,33.353,8.665,16.186,12.262-.491,15.7-46.6,1.308-52.481-11.608Z" transform="translate(-182.143 -356.524)" fill="#86d1cd"/>
          <g id="Group_334" data-name="Group 334" transform="translate(4.145 21.542)">
            <path id="Path_453" data-name="Path 453" d="M298.2,369.7S208.6,398.8,198.3,431.174c0,0,.49,14.551-8.5,31.227v6.376s9.319-21.745,14.551-24.687C204.351,444.09,184.241,415.805,298.2,369.7Z" transform="translate(-181.426 -369.7)" fill="#6bb7bf"/>
            <path id="Path_454" data-name="Path 454" d="M193.052,427.964s-13.9,20.927-5.886,46.6l3.6-.981s-3.433-28.121,3.76-42.345S193.052,427.964,193.052,427.964Z" transform="translate(-184.678 -335.263)" fill="#6bb7bf"/>
          </g>
        </g>
        <path id="Path_455" data-name="Path 455" d="M218.782,513.182A62.8,62.8,0,0,0,281.563,450.4H156A62.8,62.8,0,0,0,218.782,513.182Z" transform="translate(-91.877 -296.919)" fill="#efcbab"/>
        <path id="Path_456" data-name="Path 456" d="M231.229,512.691A62.8,62.8,0,0,1,160.6,450.4h15.532A63.153,63.153,0,0,0,231.229,512.691Z" transform="translate(-88.957 -296.919)" fill="#ffebdc"/>
        <path id="Path_457" data-name="Path 457" d="M282.7,493.684H155.5A7.675,7.675,0,0,1,163.184,486H274.85a7.816,7.816,0,0,1,7.848,7.684Z" transform="translate(-92.195 -274.315)" fill="#efcbab"/>
        <rect id="Rectangle_135" data-name="Rectangle 135" width="128.997" height="1.962" transform="translate(61.997 153.481)" fill="#efcdaf"/>
      </g>
      <g id="Group_338" data-name="Group 338" transform="translate(279.744 91.724)">
        <path id="Path_458" data-name="Path 458" d="M334.6,316.5s-10.954-20.764,5.4-28.611c0,0,11.608-3.924,19.783-1.471,0,0-16.186,17.167-12.916,19.946,3.433,2.779,16.676-20.437,16.676-20.437s23.707,2.943,30.41,8.175c0,0-23.543,11.772-19.619,13.733s28.938-9.156,28.938-9.156,20.764,8.5,16.676,21.418-12.426,15.368-15.7,14.224S383.48,321.564,382.5,324.18s8.5,13.9,16.513,16.186c0,0-18.965,13.406-28.121,6.213-8.992-7.194-8.175-15.041-13.9-19.292s-11.118-5.559-9.156-1.962,12.753,8.992,14.878,16.186,4.414,12.262-5.722,8.338-25.505-15.368-24.2-24.361Z" transform="translate(-299.934 -285.607)" fill="#599dad"/>
        <g id="Group_337" data-name="Group 337" transform="translate(0 25.11)">
          <path id="Path_459" data-name="Path 459" d="M415.1,308.379s-58.2-15.532-75.044-1.635a41.9,41.9,0,0,1-15.368,13.733l-2.289,3.433s12.589-8.5,16.349-8.338C338.749,315.737,337.768,293.665,415.1,308.379Z" transform="translate(-305.397 -300.965)" fill="#599dad"/>
          <path id="Path_460" data-name="Path 460" d="M331.292,313.33S316.578,319.87,312,336.219l2.289.654s7.848-16.349,16.676-21.418C339.63,310.387,331.292,313.33,331.292,313.33Z" transform="translate(-312 -293.654)" fill="#599dad"/>
        </g>
      </g>
      <g id="Group_340" data-name="Group 340" transform="translate(220.067)">
        <path id="Path_461" data-name="Path 461" d="M297.409,314.841s-32.535-17-18.311-41.691c0,0,11.445-15.368,24.2-19.456,0,0-5.722,36.459,1.144,37.113s3.433-41.037,3.433-41.037S341.062,232.6,354.3,233.421c0,0-19.783,35.969-13.079,34.988,6.867-.981,29.265-37.6,29.265-37.6s34.334-7.357,40.546,12.916-2.452,30.9-7.521,32.208c-5.068,1.471-37.931,1.962-36.95,6.213s23.38,10.464,35.642,6.213c0,0-12.589,34.17-30.573,33.026s-23.87-12.1-34.988-12.589-19.129,2.779-13.57,5.559,24.361.327,33.516,7.684,16.513,11.772,0,15.7-46.432,2.616-52.809-9.973Z" transform="translate(-275.499 -229.504)" fill="#86d1cd"/>
        <g id="Group_339" data-name="Group 339" transform="translate(6.87 20.757)">
          <path id="Path_462" data-name="Path 462" d="M389.98,242.2s-88.777,31.718-98.1,64.417c0,0,.817,14.551-7.684,31.391l.163,6.376s8.665-22.072,13.733-25.178C298.26,319.369,277.333,291.739,389.98,242.2Z" transform="translate(-276.845 -242.2)" fill="#6bb7bf"/>
          <path id="Path_463" data-name="Path 463" d="M287.22,302.477s-13.243,21.418-4.578,46.759l3.6-.981s-4.251-27.957,2.452-42.345C295.558,291.36,287.22,302.477,287.22,302.477Z" transform="translate(-279.701 -206.507)" fill="#6bb7bf"/>
        </g>
      </g>
      <rect id="Rectangle_136" data-name="Rectangle 136" width="228.237" height="297.559" transform="translate(113.269 130.135)" fill="#9abcef"/>
      <rect id="Rectangle_137" data-name="Rectangle 137" width="224.313" height="298.429" transform="translate(119.69 130.135)" fill="#e9f3fe"/>
      <path id="Path_465" data-name="Path 465" d="M435.206,332.148H210.892c1.308-17-.654-29.265-3.6-38.094-5.722-17-15.7-21.254-15.7-21.254H403.161c17.984,0,32.045,10.954,35.805,25.342a5.81,5.81,0,0,1,.327,1.635C443.053,316.126,435.369,331.821,435.206,332.148Z" transform="translate(-90.288 -202.014)" fill="#e9f3fe"/>
      <path id="Path_466" data-name="Path 466" d="M429.11,323.894H204.8c1.308-17-.654-29.265-3.6-38.094,22.889,4.251,79.785,13.079,140.441,11.608,39.4-.981,70.466-3.6,91.72-6.049C436.958,307.872,429.274,323.567,429.11,323.894Z" transform="translate(-85.554 -193.76)" fill="#d8e8fd"/>
      <g id="Group_342" data-name="Group 342" transform="translate(152.761 193.079)">
        <path id="Path_467" data-name="Path 467" d="M350.858,353.259H232.979a2.865,2.865,0,0,1-2.779-2.779h0a2.865,2.865,0,0,1,2.779-2.779H350.858a2.865,2.865,0,0,1,2.779,2.779h0A2.865,2.865,0,0,1,350.858,353.259Z" transform="translate(-215.486 -347.536)" fill="#bbd5fc"/>
        <path id="Path_468" data-name="Path 468" d="M304.263,358.959H232.979a2.865,2.865,0,0,1-2.779-2.779h0a2.865,2.865,0,0,1,2.779-2.779h71.283a2.865,2.865,0,0,1,2.779,2.779h0A2.661,2.661,0,0,1,304.263,358.959Z" transform="translate(-215.486 -343.917)" fill="#bbd5fc"/>
        <g id="Group_341" data-name="Group 341" transform="translate(0)">
          <path id="Path_469" data-name="Path 469" d="M224.47,361.824V350.379H223c-.981,0-1.308-.327-1.308-1.144,0-.49.327-.981,1.144-1.145a12.222,12.222,0,0,1,1.8-.327c.817,0,1.471-.164,1.962-.164s.817.164.817.327c.163.163.163.654.163,1.471V361.66h1.471c.981,0,1.471.49,1.471,1.308,0,.981-.49,1.308-1.471,1.308h-6.213a2.362,2.362,0,0,1-1.144-.327.988.988,0,0,1-.49-.981c0-.817.49-1.308,1.471-1.308h1.8Z" transform="translate(-221.2 -347.6)" fill="#bbd5fc"/>
        </g>
      </g>
      <g id="Group_344" data-name="Group 344" transform="translate(152.609 251.774)">
        <path id="Path_470" data-name="Path 470" d="M350.858,389.159H232.979a2.865,2.865,0,0,1-2.779-2.779h0a2.865,2.865,0,0,1,2.779-2.779H350.858a2.865,2.865,0,0,1,2.779,2.779h0A2.756,2.756,0,0,1,350.858,389.159Z" transform="translate(-215.322 -383.437)" fill="#d2e4fd"/>
        <path id="Path_471" data-name="Path 471" d="M304.263,394.959H232.979a2.865,2.865,0,0,1-2.779-2.779h0a2.865,2.865,0,0,1,2.779-2.779h71.283a2.865,2.865,0,0,1,2.779,2.779h0A2.756,2.756,0,0,1,304.263,394.959Z" transform="translate(-215.322 -379.754)" fill="#d2e4fd"/>
        <g id="Group_343" data-name="Group 343" transform="translate(0 0)">
          <path id="Path_472" data-name="Path 472" d="M230.746,397.56c0,.817-.491,1.144-1.635,1.144h-6.54c-.981,0-1.471-.327-1.471-1.144a2.762,2.762,0,0,1,.327-.817c.327-.49.981-1.144,1.635-1.962,1.144-1.308,1.962-2.616,2.779-3.6a15.848,15.848,0,0,0,1.144-1.471,4.851,4.851,0,0,0,.654-1.8,1.851,1.851,0,0,0-3.106-1.308c-.327.164-.49.654-.654,1.145-.163.817-.327,1.144-.327,1.308a.9.9,0,0,1-.981.654,1.413,1.413,0,0,1-.981-.49,2.323,2.323,0,0,1-.327-.981,4.526,4.526,0,0,1,.164-1.471,5.023,5.023,0,0,1,1.635-2.452,5.512,5.512,0,0,1,2.779-.817,4.316,4.316,0,0,1,3.106,1.144,4.094,4.094,0,0,1,1.308,2.943,4.8,4.8,0,0,1-.981,2.779,25.136,25.136,0,0,1-2.125,2.779,28.187,28.187,0,0,1-2.616,2.943h4.414C230.256,396.416,230.746,396.743,230.746,397.56Z" transform="translate(-221.1 -383.5)" fill="#d2e4fd"/>
        </g>
      </g>
      <g id="Group_346" data-name="Group 346" transform="translate(152.305 300.331)">
        <path id="Path_473" data-name="Path 473" d="M350.858,419.159H232.979a2.865,2.865,0,0,1-2.779-2.779h0a2.865,2.865,0,0,1,2.779-2.779H350.858a2.865,2.865,0,0,1,2.779,2.779h0A2.756,2.756,0,0,1,350.858,419.159Z" transform="translate(-214.995 -412.946)" fill="#d2e4fd"/>
        <path id="Path_474" data-name="Path 474" d="M304.263,424.959H232.979a2.865,2.865,0,0,1-2.779-2.779h0a2.865,2.865,0,0,1,2.779-2.779h71.283a2.865,2.865,0,0,1,2.779,2.779h0A2.756,2.756,0,0,1,304.263,424.959Z" transform="translate(-214.995 -409.263)" fill="#d2e4fd"/>
        <g id="Group_345" data-name="Group 345" transform="translate(0)">
          <path id="Path_475" data-name="Path 475" d="M230.873,424.154a4.223,4.223,0,0,1-1.471,3.433,5.387,5.387,0,0,1-3.6,1.308,5.646,5.646,0,0,1-2.943-.818,3.537,3.537,0,0,1-1.962-3.106,1.249,1.249,0,0,1,.327-.817c.163-.327.49-.327.817-.327a1.182,1.182,0,0,1,.981.654c.49.817.817,1.308.817,1.308a2.649,2.649,0,0,0,3.924-.491,3.08,3.08,0,0,0,.327-1.308A2.231,2.231,0,0,0,225.8,421.7c-.817-.163-1.308-.49-1.308-1.144a1.036,1.036,0,0,1,.818-.981l1.471-.49a2.11,2.11,0,0,0,.818-1.8,1.273,1.273,0,0,0-.491-1.145,1.484,1.484,0,0,0-1.144-.49,2,2,0,0,0-1.471.49,4.526,4.526,0,0,0-.817,1.308,1,1,0,0,1-1.8.164,2.324,2.324,0,0,1-.327-.981,3.848,3.848,0,0,1,.327-1.308,3.544,3.544,0,0,1,1.8-1.635,5.459,5.459,0,0,1,2.452-.49,4.565,4.565,0,0,1,2.943.981,3.368,3.368,0,0,1,1.144,2.779,3.977,3.977,0,0,1-1.8,3.27A4.1,4.1,0,0,1,230.873,424.154Z" transform="translate(-220.9 -413.2)" fill="#d2e4fd"/>
        </g>
      </g>
      <g id="Group_347" data-name="Group 347" transform="translate(176.407 143.377)">
        <path id="Path_476" data-name="Path 476" d="M324.634,323.74H252.37a3.279,3.279,0,0,1-3.27-3.27h0a3.279,3.279,0,0,1,3.27-3.27h72.264a3.279,3.279,0,0,1,3.27,3.27h0A3.28,3.28,0,0,1,324.634,323.74Z" transform="translate(-229.317 -317.2)" fill="#bbd5fc"/>
        <path id="Path_477" data-name="Path 477" d="M352.1,329.84H240.27a3.279,3.279,0,0,1-3.27-3.27h0a3.279,3.279,0,0,1,3.27-3.27H352.263a3.279,3.279,0,0,1,3.27,3.27h0A3.539,3.539,0,0,1,352.1,329.84Z" transform="translate(-237 -313.327)" fill="#bbd5fc"/>
      </g>
      <g id="Group_348" data-name="Group 348" transform="translate(135.607 171.171)">
        <path id="Path_478" data-name="Path 478" d="M303.52,391.913c-24.361,0-47.577-3.106-64.907-7.521-17.494-4.414-26.813-11.608-26.813-18.148,0-5.886,7.684-11.118,22.235-15.532h0c-13.9,4.087-21.418,10.137-21.418,15.532,0,5.886,9.646,11.608,26.486,16.022,17.167,4.414,40.219,6.7,64.58,6.7s47.25-2.452,64.58-6.7c16.84-4.251,26.486-10.137,26.486-16.022,0-6.213-10.137-13.9-26.486-20.11-18.638-7.03-41.527-9.646-64.416-9.646-43.162,0-60.983,5.068-76.352,11.281h0c15.532-6.376,33.026-13.57,76.352-13.57,23.053,0,46.105,3.924,64.743,10.954,16.676,6.376,26.976,14.387,26.976,21.091,0,6.376-9.646,12.425-27.14,16.84C350.933,387.662,327.88,391.913,303.52,391.913Z" transform="translate(-211.8 -334.2)" fill="#c65447"/>
      </g>
      <g id="Group_351" data-name="Group 351" transform="translate(227.916 157.698)">
        <path id="Path_479" data-name="Path 479" d="M362.453,405.225s-.817,7.848-1.635,9.319-4.578,6.213-6.213,7.194.981-6.213.654-7.684-1.308,2.616-1.962,2.616c-.654.163-.49-3.433-.49-4.741s3.433-4.414,4.578-7.194C358.366,401.956,362.453,405.225,362.453,405.225Z" transform="translate(-234.274 -276.652)" fill="#ffb27d"/>
        <path id="Path_480" data-name="Path 480" d="M304.973,365.654l-1.8-3.433s.817-6.049-6.7-9.81c0,0-2.779-1.144-4.251,1.144-1.471,2.125,2.779,1.635,2.452,5.232-.163,3.6,1.471,5.722,3.76,6.867l1.962,2.289Z" transform="translate(-272.928 -309.345)" fill="#ffb27d"/>
        <path id="Path_481" data-name="Path 481" d="M374.368,355.856s-6.54,31.881-42.345,42.345c-11.117,3.27-36.623-33.516-36.623-33.516s.817-3.433,6.54-2.616c0,0,24.688,16.349,27.794,18.148,2.779,1.635,20.927-20.273,29.265-23.87A21.619,21.619,0,0,1,374.368,355.856Z" transform="translate(-270.712 -307.722)" fill="#e58638"/>
        <g id="Group_349" data-name="Group 349" transform="translate(0 41.908)">
          <rect id="Rectangle_138" data-name="Rectangle 138" width="6.703" height="33.68" transform="matrix(0.152, -0.988, 0.988, 0.152, 7.276, 6.625)" fill="#c65447"/>
          <path id="Path_482" data-name="Path 482" d="M280.3,353.725l7.357,4.578.981-6.7Z" transform="translate(-280.3 -351.587)" fill="#ffb27d"/>
          <path id="Path_483" data-name="Path 483" d="M309.614,357.416l-.327,2.125a2.349,2.349,0,0,1-2.616,1.962l-1.471-.164.981-6.54,1.635.327A1.952,1.952,0,0,1,309.614,357.416Z" transform="translate(-264.49 -349.555)" fill="#ffb27d"/>
        </g>
        <g id="Group_350" data-name="Group 350" transform="translate(65.724 120.562)">
          <path id="Path_484" data-name="Path 484" d="M376.017,478.962s4.414,4.087,3.6,6.867c-.817,2.943-4.9,4.741-5.4,8.338s-2.779,5.4-4.578,5.4h-9.319s-1.471-2.452,1.962-3.27,4.741-4.9,4.578-8.665a81.228,81.228,0,0,1,.327-8.992L374.546,477Z" transform="translate(-295.415 -350.619)" fill="#088ec5"/>
          <path id="Path_485" data-name="Path 485" d="M346.659,485.971s.818,9.156-1.144,10.137H320.5s0-2.943,4.087-3.6,11.118-2.943,12.262-8.175C337.994,479.268,346.659,485.971,346.659,485.971Z" transform="translate(-320.5 -347.165)" fill="#088ec5"/>
          <path id="Path_486" data-name="Path 486" d="M323.6,405.789s1.308,16.186,2.943,35.642c2.125,26.322,4.578,58.858,4.9,64.907.49,10.627,2.125,27.794,2.125,27.794s4.087,4.087,12.426,2.289c0,0,7.357-24.361,9.483-50.193a3.6,3.6,0,0,1,.163-1.308c1.962-26.159,4.9-81.42,4.9-81.42Z" transform="translate(-318.532 -397.287)" fill="#1db3f0"/>
          <path id="Path_487" data-name="Path 487" d="M323.6,405.725s1.308,16.186,2.943,35.642l28.775,44.961a3.6,3.6,0,0,1,.163-1.308c1.962-26.159,4.9-81.42,4.9-81.42Z" transform="translate(-318.532 -397.224)" fill="#088ec5"/>
          <path id="Path_488" data-name="Path 488" d="M327.3,410.164s23.707,58.531,39.4,86.161c15.532,27.467,20.437,35.151,20.437,35.151s8.992-3.6,9.81-5.886c0,0-5.886-53.135-16.349-66.051-5.886-7.357-12.916-29.265-13.243-36.95s-2.125-22.889-2.125-22.889Z" transform="translate(-316.182 -399.7)" fill="#1db3f0"/>
        </g>
        <path id="Path_489" data-name="Path 489" d="M356.242,358.519s-16.022,7.684-25.342,4.9a21.606,21.606,0,0,1,6.213-5.068c-.327-1.8-.49-3.433-.654-4.9-.327-3.106-.327-4.9-.327-4.9l6.213-4.9,5.886-4.741C347.576,352.143,356.242,358.519,356.242,358.519Z" transform="translate(-248.172 -317.742)" fill="#ffb27d"/>
        <path id="Path_490" data-name="Path 490" d="M369.811,434.991c0,.981-2.125,2.125-2.943,2.452-6.867,2.943-13.243,5.068-20.6,5.886-8.5.817-18.8-.981-22.235-.981a2.324,2.324,0,0,1-.981-.327c-.327-.164-.49-10.464-.327-23.543v-1.8c0-5.068.327-10.464.49-15.7.49-11.772,1.471-23.053,2.943-29.265a32.228,32.228,0,0,1,9.973-15.7l3.27-2.779a15.3,15.3,0,0,0,9.973-1.145c3.76-1.8,7.684-3.76,8.338-3.27,4.9,3.6,8.175,11.445,9.81,21.581a118.593,118.593,0,0,1,1.471,19.292c0,2.452,0,5.068-.164,7.684a248.629,248.629,0,0,0,.49,32.862A30.893,30.893,0,0,1,369.811,434.991Z" transform="translate(-253.404 -311.486)" fill="#ee9849"/>
        <path id="Path_491" data-name="Path 491" d="M362.165,425.926c-56.242-.164-10.3-60.983-10.3-60.983L361.021,362A162.684,162.684,0,0,1,362,382.6c0,2.616,0,5.4-.164,8.175C361.348,405.653,361.838,418.405,362.165,425.926Z" transform="translate(-246.085 -303.075)" fill="#e58638"/>
        <path id="Path_492" data-name="Path 492" d="M346.2,342.227s-4.087,7.357-11.772,9.483c-.327-3.106-.327-4.9-.327-4.9l6.213-4.9Z" transform="translate(-246.14 -315.838)" fill="#ed985f"/>
        <path id="Path_493" data-name="Path 493" d="M333.467,354.391s15.368,2.452,16.676-6.867c1.471-9.483,4.414-15.368-5.4-17.494-9.646-1.962-12.1,1.308-13.407,4.414C330.2,337.388,329.543,353.574,333.467,354.391Z" transform="translate(-248.45 -323.751)" fill="#ffb27d"/>
        <path id="Path_494" data-name="Path 494" d="M357.807,331.094a1.564,1.564,0,0,1,1.145-.327,2.516,2.516,0,0,0-1.308-.327c-.163-.981-.654-2.779-2.452-3.106a1.814,1.814,0,0,1,.981,1.471c-1.962-1.962-6.213-3.433-17.984-2.616-15.532,1.145-10.3,11.118-8.338,12.262s7.03-2.125,10.791-1.8,4.414,5.722,5.722,6.376c1.308.818.818-.49,2.452-1.308s1.8,2.125,1.308,3.924,1.8,4.251,1.8,4.251l2.452-2.616c2.452-2.616,4.578-13.406,3.6-15.7A.716.716,0,0,1,357.807,331.094Z" transform="translate(-250.392 -325.959)" fill="#2c3a64"/>
        <path id="Path_495" data-name="Path 495" d="M347.021,348.7s9.646,4.578,14.387,11.608c7.194,10.954,15.532,50.847,15.7,54.443.163,3.76-6.049,29.756-6.049,29.756s-6.376-.49-8.011-3.6c0,0,1.308-26.813.49-28.448-.817-1.8-26.486-35.969-23.543-43.162C342.934,361.943,347.021,348.7,347.021,348.7Z" transform="translate(-242.549 -311.52)" fill="#ee9849"/>
        <path id="Path_496" data-name="Path 496" d="M300.591,360.561s.49-2.125-.981-2.943c-1.471-.981-2.779-3.433-3.433-3.106-1.308.654.654,2.943.327,5.722C296.5,361.215,298.793,363.667,300.591,360.561Z" transform="translate(-270.508 -307.849)" fill="#ffb27d"/>
      </g>
      <path id="Path_497" data-name="Path 497" d="M170.87,498.228s-22.726-58.2-38.748-49.048C116.263,458.5,170.87,498.228,170.87,498.228Z" transform="translate(-100.364 -90.645)" fill="#a8d29f"/>
      <path id="Path_498" data-name="Path 498" d="M165.739,487.23s-30.083-26-43.816-21.091C108.189,470.881,165.739,487.23,165.739,487.23Z" transform="translate(-106.351 -79.647)" fill="#a8d29f"/>
      <path id="Path_499" data-name="Path 499" d="M342.6,492.241s6.867-24.034,15.041-21.254C365.816,473.93,342.6,492.241,342.6,492.241Z" transform="translate(-12.827 -76.32)" fill="#a8d29f"/>
      <path id="Path_500" data-name="Path 500" d="M346.4,486.48s17.657-11.608,21.581-8.011S346.4,486.48,346.4,486.48Z" transform="translate(-10.414 -71.867)" fill="#a8d29f"/>
      <path id="Path_501" data-name="Path 501" d="M363.724,452.87H225.735a1.638,1.638,0,0,1-1.635-1.635h0a1.638,1.638,0,0,1,1.635-1.635H363.724a1.638,1.638,0,0,1,1.635,1.635h0A1.758,1.758,0,0,1,363.724,452.87Z" transform="translate(-67.609 -89.757)" fill="#d2e4fd"/>
      <path id="Path_502" data-name="Path 502" d="M363.724,456.97H225.735a1.638,1.638,0,0,1-1.635-1.635h0a1.638,1.638,0,0,1,1.635-1.635H363.724a1.638,1.638,0,0,1,1.635,1.635h0A1.758,1.758,0,0,1,363.724,456.97Z" transform="translate(-67.609 -87.154)" fill="#d2e4fd"/>
      <path id="Path_503" data-name="Path 503" d="M363.724,461.47H225.735a1.638,1.638,0,0,1-1.635-1.635h0a1.638,1.638,0,0,1,1.635-1.635H363.724a1.638,1.638,0,0,1,1.635,1.635h0A1.638,1.638,0,0,1,363.724,461.47Z" transform="translate(-67.609 -84.297)" fill="#d2e4fd"/>
      <path id="Path_504" data-name="Path 504" d="M345.412,466.07H225.735a1.638,1.638,0,0,1-1.635-1.635h0a1.638,1.638,0,0,1,1.635-1.635H345.412a1.638,1.638,0,0,1,1.635,1.635h0A1.54,1.54,0,0,1,345.412,466.07Z" transform="translate(-66.06 -81.376)" fill="#d2e4fd"/>
    </g>
    <g id="Group_114" data-name="Group 114" transform="translate(10502.405 1145.899)">
      <g id="Group_113" data-name="Group 113">
        <g id="Group_112" data-name="Group 112">
          <path id="Path_111" data-name="Path 111" d="M179.121,294.139l-3.052,2.359a2.2,2.2,0,0,1-2.5.139c-.347-.208-.763-.416-1.11-.624a2.144,2.144,0,0,1-1.179-2.22l.486-3.885a2.181,2.181,0,0,0-1.873-2.428l-3.469-.486A2.181,2.181,0,0,0,164,288.866l-.486,3.885a2.3,2.3,0,0,1-1.734,1.873,8.381,8.381,0,0,0-1.249.347,2.208,2.208,0,0,1-2.428-.763l-2.359-3.052a2.2,2.2,0,0,0-3.052-.416l-2.705,2.081a2.2,2.2,0,0,0-.416,3.052l2.359,3.052a2.2,2.2,0,0,1,.139,2.5c-.208.347-.416.763-.624,1.11a2.144,2.144,0,0,1-2.22,1.179l-3.885-.486a2.181,2.181,0,0,0-2.428,1.873l-.416,3.4a2.181,2.181,0,0,0,1.873,2.428l3.885.486a2.3,2.3,0,0,1,1.873,1.734,8.386,8.386,0,0,0,.347,1.249,2.208,2.208,0,0,1-.763,2.428l-3.052,2.359a2.2,2.2,0,0,0-.416,3.052l2.081,2.706a2.2,2.2,0,0,0,3.052.416L154.425,323a2.2,2.2,0,0,1,2.5-.139c.347.208.763.416,1.11.624a2.144,2.144,0,0,1,1.179,2.22l-.486,3.885a2.181,2.181,0,0,0,1.873,2.428l3.4.416a2.181,2.181,0,0,0,2.428-1.873l.486-3.885a2.3,2.3,0,0,1,1.734-1.873,8.4,8.4,0,0,0,1.249-.347,2.208,2.208,0,0,1,2.428.763l2.359,3.052a2.2,2.2,0,0,0,3.052.416l2.705-2.081a2.2,2.2,0,0,0,.416-3.052L178.5,320.5a2.2,2.2,0,0,1-.139-2.5c.208-.347.416-.763.624-1.11a2.144,2.144,0,0,1,2.22-1.179l3.885.486a2.181,2.181,0,0,0,2.428-1.873l.416-3.4a2.181,2.181,0,0,0-1.873-2.428l-3.885-.486a2.3,2.3,0,0,1-1.873-1.734,8.39,8.39,0,0,0-.347-1.249,2.208,2.208,0,0,1,.763-2.428l3.052-2.359a2.2,2.2,0,0,0,.416-3.052l-2.081-2.705A2.152,2.152,0,0,0,179.121,294.139Zm-6.729,24.974a11.725,11.725,0,1,1,2.15-16.441A11.719,11.719,0,0,1,172.392,319.112Z" transform="translate(-142.064 -286.841)" fill="#d2ddff"/>
          <path id="Path_112" data-name="Path 112" d="M164.093,332.926h-.347l-3.4-.416a2.611,2.611,0,0,1-2.22-2.844l.486-3.885a1.87,1.87,0,0,0-.971-1.873c-.416-.208-.763-.416-1.11-.624a1.889,1.889,0,0,0-2.081.069l-3.052,2.359a2.289,2.289,0,0,1-1.873.486,2.319,2.319,0,0,1-1.665-.971l-2.081-2.705a2.534,2.534,0,0,1,.486-3.538l3.052-2.359a1.887,1.887,0,0,0,.624-2.012,8.388,8.388,0,0,1-.347-1.249,2.019,2.019,0,0,0-1.6-1.457l-3.885-.486a2.611,2.611,0,0,1-2.22-2.844l.416-3.4a2.319,2.319,0,0,1,.971-1.665,2.289,2.289,0,0,1,1.873-.486l3.885.486a1.87,1.87,0,0,0,1.873-.971c.208-.416.416-.763.624-1.11a1.888,1.888,0,0,0-.069-2.081l-2.359-3.052a2.289,2.289,0,0,1-.486-1.873,2.319,2.319,0,0,1,.971-1.665l2.705-2.081a2.534,2.534,0,0,1,3.538.486l2.359,3.052a1.887,1.887,0,0,0,2.012.624,8.384,8.384,0,0,1,1.249-.347,2.019,2.019,0,0,0,1.457-1.6l.486-3.885a2.611,2.611,0,0,1,2.844-2.22l3.4.416a2.611,2.611,0,0,1,2.22,2.844l-.486,3.885a1.87,1.87,0,0,0,.971,1.873c.416.208.763.416,1.11.624a2.01,2.01,0,0,0,2.151-.069l3.052-2.359a2.534,2.534,0,0,1,3.538.486l2.081,2.705a2.534,2.534,0,0,1-.486,3.538l-3.052,2.359a1.887,1.887,0,0,0-.624,2.012,8.385,8.385,0,0,1,.347,1.249,2.02,2.02,0,0,0,1.6,1.457l3.885.486a2.319,2.319,0,0,1,1.665.971,2.289,2.289,0,0,1,.486,1.873l-.416,3.4a2.319,2.319,0,0,1-.971,1.665,2.289,2.289,0,0,1-1.873.486l-3.885-.486a1.87,1.87,0,0,0-1.873.971c-.208.416-.416.763-.624,1.11a2.011,2.011,0,0,0,.069,2.151l2.359,3.052a2.289,2.289,0,0,1,.486,1.873,2.319,2.319,0,0,1-.971,1.665l-2.705,2.081a2.534,2.534,0,0,1-3.538-.486l-2.359-3.052a1.887,1.887,0,0,0-2.012-.624,8.377,8.377,0,0,1-1.249.347,2.02,2.02,0,0,0-1.457,1.6l-.486,3.885A2.481,2.481,0,0,1,164.093,332.926Zm-8.533-10.683a2.135,2.135,0,0,1,1.318.416c.347.208.694.416,1.11.624a2.52,2.52,0,0,1,1.387,2.567l-.486,3.885a1.822,1.822,0,0,0,1.6,2.081l3.4.416a1.822,1.822,0,0,0,2.081-1.6l.486-3.885a2.511,2.511,0,0,1,1.942-2.15,5.861,5.861,0,0,0,1.179-.347,2.4,2.4,0,0,1,2.775.9l2.359,3.052a1.8,1.8,0,0,0,2.567.347l2.705-2.081a1.758,1.758,0,0,0,.694-1.249,2,2,0,0,0-.347-1.387l-2.359-3.052a2.622,2.622,0,0,1-.139-2.914c.208-.347.416-.694.624-1.11a2.52,2.52,0,0,1,2.567-1.387l3.885.486a2,2,0,0,0,1.387-.347,1.758,1.758,0,0,0,.694-1.249l.416-3.4a2,2,0,0,0-.347-1.387,1.758,1.758,0,0,0-1.249-.694l-3.885-.486a2.511,2.511,0,0,1-2.151-1.942,5.86,5.86,0,0,0-.347-1.179,2.4,2.4,0,0,1,.9-2.775l3.052-2.359a1.8,1.8,0,0,0,.347-2.567l-2.081-2.705a1.8,1.8,0,0,0-2.567-.347l-3.052,2.359a2.622,2.622,0,0,1-2.914.139c-.347-.208-.694-.416-1.11-.624a2.52,2.52,0,0,1-1.387-2.567l.486-3.885a1.822,1.822,0,0,0-1.6-2.081l-3.4-.416a1.822,1.822,0,0,0-2.081,1.6l-.486,3.885a2.511,2.511,0,0,1-1.942,2.15,5.86,5.86,0,0,0-1.179.347,2.4,2.4,0,0,1-2.775-.9l-2.359-3.052a1.8,1.8,0,0,0-2.567-.347l-2.705,2.081a1.758,1.758,0,0,0-.694,1.249,2,2,0,0,0,.347,1.387l2.359,3.052a2.622,2.622,0,0,1,.139,2.914c-.208.347-.416.694-.624,1.11a2.52,2.52,0,0,1-2.567,1.387l-3.885-.486a2,2,0,0,0-1.387.347,1.758,1.758,0,0,0-.694,1.249l-.416,3.4a1.822,1.822,0,0,0,1.6,2.081l3.885.486a2.511,2.511,0,0,1,2.15,1.942,5.86,5.86,0,0,0,.347,1.179,2.4,2.4,0,0,1-.9,2.775l-3.052,2.359a1.8,1.8,0,0,0-.347,2.567l2.081,2.706a1.758,1.758,0,0,0,1.249.694,2,2,0,0,0,1.387-.347l3.052-2.359A2.424,2.424,0,0,1,155.56,322.243Zm23.378-28.165Zm-13.874,27.748a11.951,11.951,0,0,1-9.573-4.717,12.12,12.12,0,0,1-2.428-8.949,11.807,11.807,0,0,1,4.578-7.978,12.12,12.12,0,0,1,8.949-2.428,11.807,11.807,0,0,1,7.978,4.578A12.12,12.12,0,0,1,177,311.282a11.658,11.658,0,0,1-4.578,7.978h0A11.865,11.865,0,0,1,165.064,321.827Zm-.069-23.447a11.476,11.476,0,0,0-6.937,2.359,11.34,11.34,0,0,0-4.37,7.561,11.079,11.079,0,0,0,2.289,8.394,11.376,11.376,0,0,0,15.955,2.081h0a11.4,11.4,0,0,0-5.48-20.326A9.774,9.774,0,0,0,164.995,298.379Zm7.215,20.673Z" transform="translate(-141.881 -286.781)" fill="#fff"/>
        </g>
      </g>
    </g>
    <path id="Path_128" data-name="Path 128" d="M349.742,362.6a1.039,1.039,0,0,1-.427-.061l-3.054-.611a2.2,2.2,0,0,1-1.466-.977,2.12,2.12,0,0,1-.366-1.71l.672-3.42a1.731,1.731,0,0,0-.794-1.771,9.318,9.318,0,0,1-.977-.672,1.751,1.751,0,0,0-1.954-.061l-2.931,1.954a2.12,2.12,0,0,1-1.71.366,2.2,2.2,0,0,1-1.466-.977L333.5,352.1a2.12,2.12,0,0,1-.366-1.71,2.2,2.2,0,0,1,.977-1.466l2.931-1.954a1.71,1.71,0,0,0,.672-1.832,7.865,7.865,0,0,1-.244-1.16,1.851,1.851,0,0,0-1.344-1.4l-3.42-.672a2.2,2.2,0,0,1-1.466-.977,2.12,2.12,0,0,1-.366-1.71l.611-3.054a2.381,2.381,0,0,1,2.687-1.832l3.42.672a1.731,1.731,0,0,0,1.771-.794,9.332,9.332,0,0,1,.672-.977,1.751,1.751,0,0,0,.061-1.954l-1.954-2.931a2.277,2.277,0,0,1,.611-3.176l2.565-1.771a2.12,2.12,0,0,1,1.71-.366,2.2,2.2,0,0,1,1.466.977l1.954,2.931a1.619,1.619,0,0,0,1.832.672,7.854,7.854,0,0,1,1.16-.244,1.851,1.851,0,0,0,1.4-1.344l.672-3.42a2.2,2.2,0,0,1,.977-1.466,2.12,2.12,0,0,1,1.71-.366l3.054.611a2.381,2.381,0,0,1,1.832,2.687l-.672,3.42a1.731,1.731,0,0,0,.794,1.771,9.315,9.315,0,0,1,.977.672,1.751,1.751,0,0,0,1.954.061l2.931-1.954a2.12,2.12,0,0,1,1.71-.366,2.2,2.2,0,0,1,1.466.977l1.771,2.565a2.12,2.12,0,0,1,.366,1.71,2.2,2.2,0,0,1-.977,1.466l-2.931,1.954a1.71,1.71,0,0,0-.672,1.832,7.852,7.852,0,0,1,.244,1.16,1.851,1.851,0,0,0,1.344,1.4l3.42.672a2.2,2.2,0,0,1,1.466.977,2.12,2.12,0,0,1,.366,1.71l-.611,3.054a2.381,2.381,0,0,1-2.687,1.832l-3.42-.672a1.731,1.731,0,0,0-1.771.794,9.311,9.311,0,0,1-.672.977,1.751,1.751,0,0,0-.061,1.954l1.954,2.931a2.12,2.12,0,0,1,.366,1.71,2.2,2.2,0,0,1-.977,1.466l-2.687,1.832a2.12,2.12,0,0,1-1.71.366,2.2,2.2,0,0,1-1.466-.977l-1.954-2.931a1.71,1.71,0,0,0-1.832-.672,7.859,7.859,0,0,1-1.16.244,1.851,1.851,0,0,0-1.4,1.344l-.672,3.42A2.115,2.115,0,0,1,349.742,362.6Zm-7.451-10.077a2.081,2.081,0,0,1,1.344.427,7.958,7.958,0,0,0,.916.611,2.31,2.31,0,0,1,1.038,2.382l-.672,3.42a1.883,1.883,0,0,0,.244,1.283,1.779,1.779,0,0,0,1.1.733l3.054.611a1.667,1.667,0,0,0,1.954-1.344l.672-3.42a2.347,2.347,0,0,1,1.893-1.832,7.1,7.1,0,0,0,1.1-.244,2.268,2.268,0,0,1,2.443.916L359.33,359a1.779,1.779,0,0,0,1.1.733,1.883,1.883,0,0,0,1.282-.244l2.565-1.771a1.615,1.615,0,0,0,.427-2.321l-1.954-2.931a2.3,2.3,0,0,1,.061-2.626,7.962,7.962,0,0,0,.611-.916,2.31,2.31,0,0,1,2.382-1.038l3.42.672a1.667,1.667,0,0,0,1.954-1.344l.611-3.054a1.883,1.883,0,0,0-.244-1.283,1.779,1.779,0,0,0-1.1-.733l-3.42-.672a2.347,2.347,0,0,1-1.832-1.893,7.1,7.1,0,0,0-.244-1.1,2.268,2.268,0,0,1,.916-2.443l2.931-1.954a1.615,1.615,0,0,0,.427-2.321l-1.771-2.565a1.779,1.779,0,0,0-1.1-.733,1.883,1.883,0,0,0-1.283.244l-2.931,1.954a2.3,2.3,0,0,1-2.626-.061,7.951,7.951,0,0,0-.916-.611,2.31,2.31,0,0,1-1.038-2.382l.672-3.42a1.667,1.667,0,0,0-1.344-1.954l-3.054-.611a1.883,1.883,0,0,0-1.283.244,1.779,1.779,0,0,0-.733,1.1l-.672,3.42a2.346,2.346,0,0,1-1.893,1.832,7.1,7.1,0,0,0-1.1.244,2.268,2.268,0,0,1-2.443-.916l-1.954-2.931a1.779,1.779,0,0,0-1.1-.733,1.883,1.883,0,0,0-1.283.244L338.81,325.9a1.615,1.615,0,0,0-.428,2.321l1.954,2.931a2.3,2.3,0,0,1-.061,2.626,7.962,7.962,0,0,0-.611.916,2.31,2.31,0,0,1-2.382,1.038l-3.42-.672a1.667,1.667,0,0,0-1.954,1.344l-.611,3.054a1.883,1.883,0,0,0,.244,1.283,1.779,1.779,0,0,0,1.1.733l3.42.672a2.347,2.347,0,0,1,1.832,1.893,7.1,7.1,0,0,0,.244,1.1,2.268,2.268,0,0,1-.916,2.443l-2.931,1.954a1.779,1.779,0,0,0-.733,1.1,1.883,1.883,0,0,0,.244,1.283l1.771,2.565a1.615,1.615,0,0,0,2.321.427l2.931-1.954A3.207,3.207,0,0,1,342.291,352.528Zm9.466.183a11.931,11.931,0,0,1-2.076-.183,10.927,10.927,0,0,1-6.962-4.58,10.738,10.738,0,0,1-1.649-8.184,10.926,10.926,0,0,1,4.58-6.962,10.738,10.738,0,0,1,8.184-1.649,10.927,10.927,0,0,1,6.962,4.58,10.739,10.739,0,0,1,1.649,8.184,10.927,10.927,0,0,1-4.58,6.962A11.689,11.689,0,0,1,351.757,352.711Zm-.061-21.192a10.311,10.311,0,0,0-10.077,8.306,10.1,10.1,0,0,0,1.588,7.7,10.309,10.309,0,0,0,6.535,4.336h0a10.1,10.1,0,0,0,7.695-1.588,10.309,10.309,0,0,0,4.336-6.535,10.1,10.1,0,0,0-1.588-7.7,10.308,10.308,0,0,0-6.535-4.336A10.109,10.109,0,0,0,351.7,331.519Z" transform="translate(10350.605 641.631)" fill="#2234a8"/>
    <g id="Group_185" data-name="Group 185" transform="translate(10496.415 962.356)">
      <g id="Group_184" data-name="Group 184">
        <path id="Path_209" data-name="Path 209" d="M268.456,307.431h0a2.5,2.5,0,0,0-4.892.793h0a2.546,2.546,0,0,1-4.628,1.454h0a2.54,2.54,0,0,0-4.5,2.248h0a2.526,2.526,0,0,1-3.967,2.777h0a2.553,2.553,0,0,0-3.57,3.57h0a2.571,2.571,0,0,1-2.777,3.967h0a2.54,2.54,0,0,0-2.248,4.5h0a2.568,2.568,0,0,1-1.454,4.628h0a2.5,2.5,0,0,0-.793,4.892h0a2.479,2.479,0,0,1,0,4.76h0a2.5,2.5,0,0,0,.793,4.892h0a2.546,2.546,0,0,1,1.454,4.628h0a2.54,2.54,0,0,0,2.248,4.5h0A2.526,2.526,0,0,1,246.9,359h0a2.553,2.553,0,0,0,3.57,3.57h0a2.571,2.571,0,0,1,3.967,2.777h0a2.54,2.54,0,0,0,4.5,2.248h0a2.568,2.568,0,0,1,4.628,1.454h0a2.5,2.5,0,0,0,4.892.793h0a2.479,2.479,0,0,1,4.76,0h0a2.5,2.5,0,0,0,4.892-.793h0a2.546,2.546,0,0,1,4.628-1.454h0a2.54,2.54,0,0,0,4.5-2.248h0a2.526,2.526,0,0,1,3.967-2.777h0a2.553,2.553,0,0,0,3.57-3.57h0a2.571,2.571,0,0,1,2.777-3.967h0a2.54,2.54,0,0,0,2.248-4.5h0a2.568,2.568,0,0,1,1.454-4.628h0a2.5,2.5,0,0,0,.793-4.892h0a2.479,2.479,0,0,1,0-4.76h0a2.5,2.5,0,0,0-.793-4.892h0a2.546,2.546,0,0,1-1.454-4.628h0a2.54,2.54,0,0,0-2.248-4.5h0a2.526,2.526,0,0,1-2.777-3.967h0a2.553,2.553,0,0,0-3.57-3.57h0a2.571,2.571,0,0,1-3.967-2.777h0a2.54,2.54,0,0,0-4.5-2.248h0a2.568,2.568,0,0,1-4.628-1.454h0a2.5,2.5,0,0,0-4.892-.793h0A2.479,2.479,0,0,1,268.456,307.431Z" transform="translate(-225.449 -305.661)" fill="#efa048"/>
        <g id="Group_182" data-name="Group 182" transform="translate(28.859 11.951)">
          <path id="Path_210" data-name="Path 210" d="M278.464,352.6H255.192A4.881,4.881,0,0,1,250.3,347.7V329.192a4.881,4.881,0,0,1,4.892-4.892h23.271a4.881,4.881,0,0,1,4.892,4.892v18.379A4.831,4.831,0,0,1,278.464,352.6Zm-23.271-26.313a3.076,3.076,0,0,0-3.041,3.041V347.7a3.076,3.076,0,0,0,3.041,3.041h23.271A3.076,3.076,0,0,0,281.5,347.7V329.192a3.076,3.076,0,0,0-3.041-3.041H255.192Z" transform="translate(-250.3 -311.606)" fill="#121936"/>
          <path id="Path_211" data-name="Path 211" d="M276.807,329.377a.9.9,0,0,1-.926-.926v-5.289c0-3.57-3.306-6.479-7.4-6.479h-5.421c-4.1,0-7.4,2.909-7.4,6.479v5.289a.926.926,0,1,1-1.851,0v-5.289c0-4.628,4.231-8.462,9.256-8.462h5.421c5.157,0,9.256,3.834,9.256,8.462v5.289A.993.993,0,0,1,276.807,329.377Z" transform="translate(-249.172 -314.7)" fill="#121936"/>
          <g id="Group_181" data-name="Group 181" transform="translate(10.962 18.506)">
            <g id="Group_180" data-name="Group 180">
              <path id="Path_212" data-name="Path 212" d="M270.107,334.122a5.54,5.54,0,0,0-5.818-5.421,5.659,5.659,0,0,0-5.686,5.289,5.079,5.079,0,0,0,2.248,4.5,1.338,1.338,0,0,1,.529.926v1.454a1.185,1.185,0,0,0,1.19,1.19h3.7a1.185,1.185,0,0,0,1.19-1.19v-1.454a1,1,0,0,1,.529-.926A6.021,6.021,0,0,0,270.107,334.122Z" transform="translate(-258.591 -328.696)" fill="#121936"/>
              <g id="Group_177" data-name="Group 177" transform="translate(4.376 14.021)">
                <path id="Path_213" data-name="Path 213" d="M264.48,340.59a1.19,1.19,0,1,1-1.19-1.19A1.185,1.185,0,0,1,264.48,340.59Z" transform="translate(-261.836 -339.268)" fill="#121936"/>
                <path id="Path_214" data-name="Path 214" d="M263.222,341.944a1.322,1.322,0,1,1,1.322-1.322C264.677,341.416,264.016,341.944,263.222,341.944Zm0-2.38a1.058,1.058,0,1,0,1.058,1.058A1.043,1.043,0,0,0,263.222,339.564Z" transform="translate(-261.9 -339.3)" fill="#ffd066"/>
              </g>
              <g id="Group_178" data-name="Group 178" transform="translate(3.318 13.36)">
                <path id="Path_215" data-name="Path 215" d="M265.267,340.058h-3.438a.569.569,0,0,1-.529-.529h0a.569.569,0,0,1,.529-.529h3.438a.569.569,0,0,1,.529.529h0C265.663,339.793,265.531,340.058,265.267,340.058Z" transform="translate(-261.035 -338.736)" fill="#121936"/>
                <path id="Path_216" data-name="Path 216" d="M265.331,340.254h-3.57a.625.625,0,0,1-.661-.661v-.132a.625.625,0,0,1,.661-.661h3.57a.625.625,0,0,1,.661.661v.132A.625.625,0,0,1,265.331,340.254Zm-3.57-1.058a.284.284,0,0,0-.264.264v.132a.284.284,0,0,0,.264.264h3.57a.284.284,0,0,0,.264-.264v-.132a.284.284,0,0,0-.264-.264Z" transform="translate(-261.1 -338.8)" fill="#ffd066"/>
              </g>
              <g id="Group_179" data-name="Group 179" transform="translate(3.583 14.417)">
                <path id="Path_217" data-name="Path 217" d="M264.938,340.593H261.9a.351.351,0,0,1-.4-.4h0a.351.351,0,0,1,.4-.4h3.041a.351.351,0,0,1,.4.4h0A.351.351,0,0,1,264.938,340.593Z" transform="translate(-261.236 -339.535)" fill="#121936"/>
                <path id="Path_218" data-name="Path 218" d="M265,340.79h-3.173a.569.569,0,0,1-.529-.529v-.132a.569.569,0,0,1,.529-.529H265a.569.569,0,0,1,.529.529v.132C265.663,340.658,265.4,340.79,265,340.79ZM261.829,340a.284.284,0,0,0-.264.264v.132a.284.284,0,0,0,.264.264H265a.284.284,0,0,0,.264-.264v-.264a.284.284,0,0,0-.264-.264h-3.173Z" transform="translate(-261.3 -339.6)" fill="#ffd066"/>
              </g>
              <path id="Path_219" data-name="Path 219" d="M260,334.845a.462.462,0,0,1-.264-.132,3.961,3.961,0,0,1,1.322-4.1c.132-.132.264,0,.4,0,.132.132,0,.264,0,.4a3.127,3.127,0,0,0-1.19,3.57c0,.132,0,.264-.264.264Z" transform="translate(-258.266 -328.097)" fill="#ffd066"/>
            </g>
          </g>
        </g>
        <path id="Path_220" data-name="Path 220" d="M240.865,314.7a.486.486,0,0,1-.4-.132l-6.215-4.892a.661.661,0,1,1,.793-1.058l6.215,4.892a.814.814,0,0,1,.132.926A.687.687,0,0,1,240.865,314.7Z" transform="translate(-226.682 -304.736)" fill="#2234a8"/>
        <path id="Path_221" data-name="Path 221" d="M229.17,331.682a.879.879,0,0,1-.661-.529c-.132-.4.132-.661.529-.793l7.669-1.851c.4-.132.661.132.793.529s-.132.661-.529.793l-7.669,1.851Z" transform="translate(-228.474 -298.31)" fill="#2234a8"/>
        <path id="Path_222" data-name="Path 222" d="M237.678,322.318h-.132l-7.537-2.116a.627.627,0,0,1,.4-1.19l7.537,2.116a.554.554,0,0,1,.4.793A1.124,1.124,0,0,1,237.678,322.318Z" transform="translate(-228.123 -301.375)" fill="#2234a8"/>
        <path id="Path_223" data-name="Path 223" d="M290.261,330.883a.661.661,0,1,1,0-1.322l7.8-.661a.661.661,0,1,1,0,1.322l-7.8.661Z" transform="translate(-208.777 -298.173)" fill="#2234a8"/>
        <path id="Path_224" data-name="Path 224" d="M289.57,322.346a.675.675,0,0,1-.661-.529.642.642,0,0,1,.4-.793l7.537-2.116a.627.627,0,0,1,.4,1.19l-7.537,2.116A.13.13,0,0,1,289.57,322.346Z" transform="translate(-209.011 -301.404)" fill="#2234a8"/>
        <path id="Path_225" data-name="Path 225" d="M295.749,341.5c-.132,0-.264,0-.264-.132l-7.008-3.57a.681.681,0,0,1,.661-1.19l7.008,3.57a.759.759,0,0,1,.264.926A.727.727,0,0,1,295.749,341.5Z" transform="translate(-209.24 -295.704)" fill="#2234a8"/>
      </g>
    </g>
    <g id="Group_145" data-name="Group 145" transform="translate(10569.325 950.254)">
      <path id="Path_145" data-name="Path 145" d="M142.851,352.8a1.851,1.851,0,1,1,1.851-1.851A1.808,1.808,0,0,1,142.851,352.8Zm0-3.041a1.19,1.19,0,1,0,1.19,1.19A1.185,1.185,0,0,0,142.851,349.761Z" transform="translate(-141 -241.205)" fill="#afcdfb"/>
      <path id="Path_146" data-name="Path 146" d="M214.222,270.145a1.322,1.322,0,1,1,1.322-1.322A1.422,1.422,0,0,1,214.222,270.145Zm0-2.248a.926.926,0,1,0,.926.926A1.114,1.114,0,0,0,214.222,267.9Z" transform="translate(-117.831 -267.5)" fill="#afcdfb"/>
      <path id="Path_147" data-name="Path 147" d="M161.067,355.683a1.983,1.983,0,1,1-1.983-1.983A1.874,1.874,0,0,1,161.067,355.683Z" transform="translate(-135.812 -239.723)" fill="#afcdfb"/>
      <path id="Path_148" data-name="Path 148" d="M202.251,282.526a.926.926,0,1,1-.926-.926A.9.9,0,0,1,202.251,282.526Z" transform="translate(-121.859 -262.956)" fill="#afcdfb"/>
      <path id="Path_149" data-name="Path 149" d="M166.551,436.732a.926.926,0,1,1-.926-.926C166.154,435.674,166.551,436.071,166.551,436.732Z" transform="translate(-133.363 -213.273)" fill="#afcdfb"/>
      <path id="Path_150" data-name="Path 150" d="M221.351,372.131a.926.926,0,1,1-.926-.926C220.822,371.073,221.351,371.6,221.351,372.131Z" transform="translate(-115.704 -234.088)" fill="#afcdfb"/>
      <path id="Path_151" data-name="Path 151" d="M146.509,368.854a1.454,1.454,0,1,1-1.454-1.454A1.467,1.467,0,0,1,146.509,368.854Z" transform="translate(-140.162 -235.308)" fill="#afcdfb"/>
      <path id="Path_152" data-name="Path 152" d="M188.455,447.006h-.264a1.389,1.389,0,0,1-1.19-.661,1.891,1.891,0,1,1,3.041-2.248,2.551,2.551,0,0,1,.4,1.322,1.389,1.389,0,0,1-.661,1.19A2.956,2.956,0,0,1,188.455,447.006Zm0-3.041a1.879,1.879,0,0,0-.793.264,1.254,1.254,0,0,0-.264,1.719,2.767,2.767,0,0,0,.793.529,1.259,1.259,0,0,0,.926-.264,2.766,2.766,0,0,0,.529-.793,1.259,1.259,0,0,0-.264-.926h0a2.765,2.765,0,0,0-.793-.529Z" transform="translate(-126.31 -210.854)" fill="#afcdfb"/>
      <path id="Path_153" data-name="Path 153" d="M203.674,429.474a1.983,1.983,0,1,1-2.777-.4A2.2,2.2,0,0,1,203.674,429.474Z" transform="translate(-121.96 -215.535)" fill="#afcdfb"/>
      <path id="Path_154" data-name="Path 154" d="M226.022,278.167a.661.661,0,1,1-.661-.661C225.758,277.374,226.022,277.771,226.022,278.167Z" transform="translate(-114.028 -264.284)" fill="#afcdfb"/>
      <path id="Path_155" data-name="Path 155" d="M199.622,352.961a.661.661,0,1,1-.661-.661A.625.625,0,0,1,199.622,352.961Z" transform="translate(-122.535 -240.174)" fill="#afcdfb"/>
      <path id="Path_156" data-name="Path 156" d="M178.222,459.261a.661.661,0,1,1-.661-.661A.625.625,0,0,1,178.222,459.261Z" transform="translate(-129.431 -205.919)" fill="#afcdfb"/>
      <circle id="Ellipse_7" data-name="Ellipse 7" cx="1.983" cy="1.983" r="1.983" transform="translate(58.443 5.686)" fill="#afcdfb"/>
      <circle id="Ellipse_8" data-name="Ellipse 8" cx="1.983" cy="1.983" r="1.983" transform="translate(88.194 250.697)" fill="#afcdfb"/>
    </g>
    <g id="Group_353" data-name="Group 353" transform="translate(10774.947 962.356)">
      <path id="Path_158" data-name="Path 158" d="M377.722,270.145a1.322,1.322,0,1,1,0-2.645,1.322,1.322,0,0,1,0,2.645Zm0-2.248a.926.926,0,1,0,.926.926A1.114,1.114,0,0,0,377.722,267.9Z" transform="translate(-267.422 -259.699)" fill="#afcdfb"/>
      <path id="Path_160" data-name="Path 160" d="M378.7,286.726a.926.926,0,1,0,.926-.926A.9.9,0,0,0,378.7,286.726Z" transform="translate(-266.68 -253.802)" fill="#afcdfb"/>
      <path id="Path_161" data-name="Path 161" d="M313,318.026a.926.926,0,1,0,.926-.926A.9.9,0,0,0,313,318.026Z" transform="translate(-287.852 -243.716)" fill="#afcdfb"/>
      <path id="Path_165" data-name="Path 165" d="M354.9,267.367a.661.661,0,1,0,.661-.661C355.3,266.574,354.9,266.971,354.9,267.367Z" transform="translate(-274.35 -259.963)" fill="#afcdfb"/>
      <path id="Path_166" data-name="Path 166" d="M294.006,277.5a1.011,1.011,0,1,0,1.19-.793A1.03,1.03,0,0,0,294.006,277.5Z" transform="translate(-293.981 -256.74)" fill="#afcdfb"/>
      <path id="Path_167" data-name="Path 167" d="M302.508,262.129a.674.674,0,1,0,1.322.264c0-.4-.132-.793-.529-.793S302.508,261.732,302.508,262.129Z" transform="translate(-291.244 -261.6)" fill="#afcdfb"/>
      <path id="Path_170" data-name="Path 170" d="M312.4,295.861a.661.661,0,1,0,.661-.661A.708.708,0,0,0,312.4,295.861Z" transform="translate(-288.045 -250.773)" fill="#afcdfb"/>
      <path id="Path_173" data-name="Path 173" d="M391.8,266.183a1.983,1.983,0,1,0,1.983-1.983A1.947,1.947,0,0,0,391.8,266.183Z" transform="translate(-262.459 -260.762)" fill="#afcdfb"/>
      <path id="Path_174" data-name="Path 174" d="M324.814,271.291a2.023,2.023,0,1,0,2.38-1.587A2.021,2.021,0,0,0,324.814,271.291Z" transform="translate(-284.063 -258.994)" fill="#afcdfb"/>
    </g>
  </g>
</svg>
