<svg xmlns="http://www.w3.org/2000/svg" width="42.131" height="50.156" viewBox="0 0 42.131 50.156">
  <g id="Group_862" data-name="Group 862" transform="translate(-11.899 -33.34)">
    <path id="Path_1327" data-name="Path 1327" d="M44.11,72.49c-.14,1.24-.2,2.42-.41,3.57-.66,3.48-2.76,5.23-6.32,5.31-1.01.02-2.02,0-3.05,0a2.763,2.763,0,0,1-2.3,2.04,15.349,15.349,0,0,1-3.52-.03,2.8,2.8,0,0,1-2.27-3.07,2.933,2.933,0,0,1,2.92-2.67c.72,0,1.45.01,2.17,0a2.888,2.888,0,0,1,2.89,1.87.744.744,0,0,0,.08.15c1.33,0,2.61.09,3.88-.02a4.1,4.1,0,0,0,3.9-3.72c.1-.52.16-1.05.24-1.62-.24.01-.4.02-.57.03a2.392,2.392,0,0,1-2.59-2.37c-.02-3.55-.02-7.11,0-10.66a2.289,2.289,0,0,1,1.58-2.24.47.47,0,0,0,.36-.54,11.174,11.174,0,0,0-.76-3.79c-.1-.26-.25-.32-.52-.36a2.146,2.146,0,0,0-1.83.69c-2.29,2.12-4.62,4.18-6.94,6.27a.851.851,0,0,1-1,.25.905.905,0,0,1-.5-.96c.01-1.87,0-3.74,0-5.61v-.63H28.18a1.848,1.848,0,0,1-1.96-1.96c-.01-1.18,0-2.36,0-3.54-3.19.3-6.65,5.5-6.67,9.98a8.749,8.749,0,0,1,1.04.59,2.242,2.242,0,0,1,.89,1.84c0,3.55.01,7.11-.01,10.66a2.39,2.39,0,0,1-1.92,2.35,2.422,2.422,0,0,1-2.75-1.47c-.05-.11-.09-.21-.15-.34-.56,0-1.12.01-1.67,0a3.029,3.029,0,0,1-3.02-2.82q-.12-3.03-.01-6.06a2.87,2.87,0,0,1,2.1-2.69.574.574,0,0,0,.46-.68,17.325,17.325,0,0,1,1.07-7.13,15.648,15.648,0,0,1,10.13-9.43.611.611,0,0,0,.51-.7c-.02-2.51-.01-5.02-.01-7.53a1.844,1.844,0,0,1,2.07-2.09c7.9,0,15.8.02,23.7-.02a1.928,1.928,0,0,1,2.05,2.02c-.02,5.66-.01,11.32-.01,16.98a1.837,1.837,0,0,1-2.07,2.04H45.49a21.129,21.129,0,0,1,.62,6.36c.16.05.28.09.41.13a3.179,3.179,0,0,1,2.21,3.01c.01,1.82.02,3.64,0,5.46a3.143,3.143,0,0,1-3.15,3.15ZM31.19,58.99c.27-.23.43-.37.59-.52,1.94-1.75,3.89-3.48,5.81-5.25a1.818,1.818,0,0,1,1.36-.5c4.28.01,8.56,0,12.83.02.47,0,.63-.11.63-.61q-.03-8.265,0-16.52c0-.51-.13-.65-.64-.65-7.76.02-15.53.01-23.29.01h-.57c-.02.28-.04.49-.04.71V47.7c0,1.47.02,2.93-.01,4.4-.01.47.11.69.61.64.4-.04.81-.01,1.21-.01,1.41,0,1.5.09,1.5,1.48C31.19,55.75,31.19,57.3,31.19,58.99Zm-14.96,1.7a.409.409,0,0,0,.6-.3,1.214,1.214,0,0,1,.36-.6,1.864,1.864,0,0,0,.78-1.87,1.567,1.567,0,0,1,.05-.3c.65-4.99,3.11-8.62,7.9-10.51a.553.553,0,0,0,.3-.37c.04-.48.01-.97.01-1.53a14.048,14.048,0,0,0-7.06,4.88A14.543,14.543,0,0,0,16.23,60.69ZM44.05,70.87h1.42a1.518,1.518,0,0,0,1.63-1.55c.03-1.8.02-3.6,0-5.4a1.39,1.39,0,0,0-1.09-1.46,11.88,11.88,0,0,0-1.98-.02C44.05,65.24,44.05,68.03,44.05,70.87ZM16.6,62.37c-.52,0-1-.01-1.49,0a1.487,1.487,0,0,0-1.54,1.52q-.015,2.73,0,5.46a1.48,1.48,0,0,0,1.3,1.5,16.571,16.571,0,0,0,1.73.01Zm25.8,4.2v-5.1c0-.64-.36-1-.91-.93-.46.06-.69.38-.69,1.01V71.71c0,.58.24.92.67.98.54.08.93-.29.93-.92Zm-22.54.05v-5.2a.785.785,0,0,0-.96-.87c-.44.08-.63.4-.63,1.06v10a2.071,2.071,0,0,0,.05.5.727.727,0,0,0,.82.59c.45-.03.72-.36.72-.92ZM30.35,79.26c-.37,0-.74-.01-1.11,0a1.313,1.313,0,0,0-1.36,1.27,1.282,1.282,0,0,0,1.29,1.33,22.441,22.441,0,0,0,2.32,0,1.29,1.29,0,0,0,1.29-1.34,1.327,1.327,0,0,0-1.37-1.26C31.06,79.25,30.71,79.26,30.35,79.26Zm14.16-18.6c0-.45.01-.92,0-1.38a16.053,16.053,0,0,0-.61-4.52c-.05-.15-.23-.35-.36-.36-.5-.04-1-.02-1.4-.02.21,1.35.45,2.68.6,4.02a1.437,1.437,0,0,0,.53,1.19,1.75,1.75,0,0,1,.53.77C43.95,60.7,44.13,60.81,44.51,60.66Z" fill="#005c7e"/>
    <path id="Path_1328" data-name="Path 1328" d="M28.59,65.81a.8.8,0,0,1,.84.81.829.829,0,0,1-.86.8.806.806,0,1,1,.02-1.61Z" fill="#005c7e"/>
    <path id="Path_1329" data-name="Path 1329" d="M36.42,66.6a.828.828,0,0,1-.84.82.844.844,0,0,1-.86-.81.8.8,0,0,1,.84-.81A.817.817,0,0,1,36.42,66.6Z" fill="#005c7e"/>
    <path id="Path_1330" data-name="Path 1330" d="M25.07,65.81a.771.771,0,0,1,.85.78.793.793,0,0,1-.81.83.83.83,0,0,1-.87-.79A.813.813,0,0,1,25.07,65.81Z" fill="#005c7e"/>
    <path id="Path_1331" data-name="Path 1331" d="M32.91,66.62a.8.8,0,0,1-.85.8.813.813,0,0,1-.83-.82.789.789,0,0,1,.85-.79A.777.777,0,0,1,32.91,66.62Z" fill="#005c7e"/>
    <path id="Path_1332" data-name="Path 1332" d="M40.07,40.17H32.59a5.24,5.24,0,0,1-.56-.02.776.776,0,0,1-.75-.79.822.822,0,0,1,.74-.82,2.673,2.673,0,0,1,.4-.01H47.68a2.24,2.24,0,0,1,.45.01.8.8,0,0,1,.71.8.763.763,0,0,1-.74.8c-.49.03-.98.02-1.46.02Q43.355,40.175,40.07,40.17Z" fill="#005c7e"/>
    <path id="Path_1333" data-name="Path 1333" d="M40.11,43.04h7.48a4.1,4.1,0,0,1,.5.02.76.76,0,0,1,.74.75.813.813,0,0,1-.7.85,3.381,3.381,0,0,1-.45.01H32.42a1.974,1.974,0,0,1-.64-.08.718.718,0,0,1-.49-.84.742.742,0,0,1,.69-.69,5.055,5.055,0,0,1,.55-.02Z" fill="#005c7e"/>
    <path id="Path_1334" data-name="Path 1334" d="M34.59,49.16c-.79,0-1.58.01-2.37,0-.61-.01-.95-.31-.94-.81s.36-.82.95-.82q2.37-.015,4.74,0a.843.843,0,0,1,.93.79c.02.49-.34.83-.93.83C36.17,49.17,35.38,49.16,34.59,49.16Z" fill="#005c7e"/>
  </g>
</svg>
